<svg xmlns="http://www.w3.org/2000/svg" version="1.1" xmlns:xlink="http://www.w3.org/1999/xlink" xmlns:svgjs="http://svgjs.dev/svgjs" width="1000" height="1125" viewBox="0 0 1000 1125"><g transform="matrix(1,0,0,1,0,0)"><svg viewBox="0 0 320 360" data-background-color="#ffffff" preserveAspectRatio="xMidYMid meet" height="1125" width="1000" xmlns="http://www.w3.org/2000/svg" xmlns:xlink="http://www.w3.org/1999/xlink"><g id="tight-bounds" transform="matrix(1,0,0,1,0,0)"><svg viewBox="0 0 320 360" height="360" width="320"><g><svg></svg></g><g><svg viewBox="0 0 320 360" height="360" width="320"><g><path xmlns="http://www.w3.org/2000/svg" d="M219.58 41.008c0.707 0 6.365 2.829 9.547 3.89-1.061 0.354-3.536-0.707-6.365-1.768 0.707 0 2.122 0.354 3.536 1.06-0.707-0.707-6.011-2.475-6.718-3.182M166.895 30.047c1.061-0.354 13.436 1.414 19.094 1.768 0.354-0.354-0.707-0.354-2.122-0.707 1.768-0.354 5.304 0.707 7.779 1.06-7.425 0.354-15.558-1.768-22.629-1.06-2.475 0-0.707-0.707-2.122-1.061M156.641 30.047c6.365 0 11.315 0 2.121 0.707-1.061-0.354-2.475-0.354-2.121-0.707M256.707 59.395c0.707 0 3.536 3.182 4.95 4.243-0.354 0.354-3.182-2.475-4.596-3.536 0.354 0.354 0 0-0.354-0.707M249.635 54.798c-2.829-2.475-3.889-2.475-4.243-3.889 2.475 1.414 4.243 2.829 4.243 3.889M204.022 32.522c0.354-0.354 1.061 0.354 2.829 0.707-2.122-0.354-1.768 0-1.061 0.707-2.475-0.354-3.182-0.707-2.475-1.414 1.414 0.707 1.768 0.354 0.707 0M103.602 36.765c0-0.354 1.414-1.061 2.475-1.414-1.061 0.707-0.707 1.061 1.061 0.353 0 0.354-2.122 1.061-3.536 1.768 0.707-0.354 1.414-1.414 0-0.707M211.094 28.986c-1.061 0.354-4.95-1.768-8.84-2.475-2.122-0.707 8.486 1.768 8.84 2.475M2.475 203.66c2.122 8.84 0.707 8.486 0 0M2.829 150.621c0.354-1.414 0.707-5.304 1.06-4.95-1.061 8.486-2.829 12.376-3.182 18.74 1.061-5.657-0.354 3.182-0.707 5.304 0.354 2.829 0.354-1.768 1.061-1.06 0.707 1.061-1.414 15.912-0.707 7.779-0.707 7.425 0 15.558 1.414 17.679-1.768 11.315 7.072 36.773 8.84 42.077 0.354 0.354 0-1.768 0.707-0.353 0.707 4.597 3.889 7.779 4.95 12.729 1.061 1.414 5.304 9.193 6.011 10.962 1.414 2.829 2.122 2.475 3.536 5.303 4.243 8.133 10.961 15.912 17.326 23.337 20.508 24.044 51.978 43.845 86.984 50.918 35.006 7.425 71.779 2.122 100.419-11.669 1.768-1.061 1.414-1.414 3.536-2.122 9.901-3.182 21.923-13.436 28.641-17.326 3.182-3.536 11.669-9.547 12.73-13.082 6.011-4.95 12.022-13.083 15.204-18.387 1.768-2.829 3.182-2.829 3.889-4.597-0.354 0 5.657-7.425 7.426-11.668-0.707 0-1.768 2.122-1.768 0 12.729-24.398 19.801-57.282 15.911-79.912 0.707 27.934-6.365 59.05-19.801 78.851-6.011 12.729-18.387 26.519-29.701 36.42-1.768 1.768-3.536 3.889-5.658 5.304-6.718 5.657-14.144 10.254-21.922 14.497-18.387 10.254-38.895 19.094-62.94 19.447 41.37-3.536 78.497-24.398 99.006-49.856-15.558 15.204-22.276 21.215-39.602 30.055-1.414 2.475-13.083 7.425-20.862 9.547 4.597-2.122 14.144-5.657 17.326-8.486-25.812 12.376-54.453 19.448-81.326 15.558 10.254 0 24.751 0.354 38.541-2.121 2.122-0.707 3.182-1.414 5.658-1.768 26.873-6.011 52.685-19.094 71.072-37.481-10.608 9.547-26.519 20.862-36.774 24.398 9.547-5.304 26.873-15.558 32.53-23.337-11.315 11.315-32.53 22.63-45.966 27.58-2.122 0.354 1.414-1.414-2.122 0-4.243 1.061-2.475 1.061-3.536 1.768-16.265 4.597-35.006 8.486-50.563 7.072-2.829-0.354-3.889-1.061-6.365-1.061-2.829-0.354-5.304-0.354-8.486-0.354-12.376-1.414-25.812-6.365-35.713-10.607-5.304-2.475-10.608-4.243-15.912-7.426-4.243-2.475-7.779-5.304-11.314-8.132-13.436-9.901-24.751-19.801-35.36-33.945-19.094-26.519-28.994-59.757-27.58-92.641 1.414-32.884 14.497-65.061 35.359-88.752-1.061 1.061 1.414-2.475 3.536-4.596 0 0.707-0.354 1.768 2.122-0.707 2.122-2.475-0.707-0.707 0.353-2.122 21.923-24.044 60.111-43.492 99.36-44.199 1.414-1.061 3.889-2.475 6.718-1.768 0 0.354-1.768 0.354-1.768 0.354 3.889-0.354 7.425-0.354 9.193 0.353 0.354-0.354-1.414-0.707 0-0.707 2.475 0.707 3.182 0 4.597 0.707-1.061 0-2.122 0-2.829 0.354 8.84 0 14.497 2.122 23.337 2.829-4.597-1.061-5.657-1.061-9.193-2.122 3.889 0.707 5.657 1.414 7.425 1.061-0.707 0-0.354-1.061 0.354-0.707 7.072 1.768 7.779 2.475 15.204 4.95 0.707-0.707-3.182-1.061-4.243-2.122 7.072 2.475 13.436 4.243 17.68 7.072-1.414-1.061-5.657-2.475-8.84-3.889-0.354 0.354 1.061 0.707 1.414 1.414-3.536-1.768-8.486-3.536-13.436-4.243 4.243 1.061 7.072 2.475 8.84 3.182-3.889-0.707-8.84-3.182-14.498-4.243 9.193 2.829 26.519 9.193 37.127 14.851-3.889-2.475-8.486-4.243-10.961-5.657 2.122 0.354 4.597 1.768 4.597 1.06 2.475 1.061 5.657 3.536 7.425 3.89-3.182-2.122-9.547-5.304-11.668-6.365 26.519 12.022 50.21 32.177 65.414 57.989 1.414 2.475 3.536 8.133 5.304 8.84-0.354-1.768-1.768-2.829-3.182-5.657 0.707 0 0.707-1.061 0-2.122-1.414-1.768 0 1.414-1.415-0.354-6.365-11.669-14.144-21.923-26.165-33.237 6.718 6.365 1.768 1.768 0.353-0.354 9.193 8.133 19.801 21.923 24.398 28.995-0.707-1.061-1.061-1.768-0.707-1.768 8.486 14.497 13.79 27.58 19.094 46.32 0.354 0.354 0-1.414 0.707-0.353 3.536 14.851 4.597 27.227 4.243 38.541 2.829-19.094-3.536-48.796-14.851-72.133-1.414-2.829-1.414-0.707-2.829-3.889 0-1.061-1.061-3.182-1.768-4.597-14.144-23.337-31.47-39.956-51.978-53.038 1.414 0.707 4.243 2.829 4.244 2.475-38.188-25.105-82.387-28.641-118.807-20.862-2.475 1.061-3.536 2.122-6.365 3.536 5.304-1.768 8.486-2.122 13.437-3.183 1.061-1.061-4.597 0.354-2.122-0.707 0.354 0.354 4.95-0.707 6.011-0.353 0 0.354-1.414 0.707-1.768 1.06 11.669-2.475 23.691-2.829 33.945-2.121-6.011 0.354-16.972-0.707-20.508 1.061 3.536-0.354 8.486-0.707 11.668-0.354-4.243 0-12.022 0.354-15.558 0.707-0.354-0.354 5.657-1.061 1.768-1.06-1.768 0.354-4.597 0.354-5.657 1.414-30.409 2.829-60.111 18.74-80.973 37.481-4.243 3.536-9.193 7.425-12.375 11.314-7.779 8.84-12.729 17.68-18.387 25.459 3.536-7.425 11.315-18.74 20.508-28.287 9.193-9.547 19.094-17.68 24.398-21.923 0 1.414 8.486-5.304 11.669-7.425-2.122 1.768 1.414-0.707 2.121-0.354 11.315-6.718 20.508-9.193 30.763-13.083-2.475 0.707-4.597 1.414-4.951 1.061 2.475-0.707 3.889-1.414 3.536-1.768-9.901 2.829-25.459 9.547-37.834 16.972 22.276-15.204 50.564-24.398 78.497-24.751 27.934-0.707 55.16 6.365 76.729 17.68 14.497 6.365 28.287 18.033 39.249 29.348 3.182 2.829 0.707-0.707 5.304 4.243-1.414-0.707-2.475-1.414-0.707 0.707 2.829 3.182-0.707-2.475 3.889 3.182-0.354 0-1.768-1.768-1.768-1.061 12.376 10.961 21.923 30.762 27.58 43.846-1.414-5.304-4.95-12.729-7.779-18.033 8.486 15.558 11.315 24.751 14.851 38.541 1.414 1.061-0.707-4.95 0.707-2.121 0.354 2.122 0.707 8.84 2.122 9.9-1.061-6.718-2.829-14.851-4.243-16.265 1.061 0.707-1.768-8.133-3.536-10.254-0.707-5.657-5.657-15.558-9.901-22.984-15.204-29.702-42.431-54.099-72.839-67.536 0-0.707-1.768-1.414-2.476-2.121-30.055-12.729-66.122-16.265-100.773-8.133-35.006 8.486-67.889 28.641-91.227 57.636 1.061-3.536 9.901-10.254 10.255-13.083-10.254 10.961-21.215 25.459-28.641 41.016-7.779 15.558-12.022 31.47-13.79 43.138" fill="#a437db" fill-rule="nonzero" stroke="none" stroke-width="1" stroke-linecap="butt" stroke-linejoin="miter" stroke-miterlimit="10" stroke-dasharray="" stroke-dashoffset="0" font-family="none" font-weight="none" font-size="none" text-anchor="none" style="mix-blend-mode: normal" data-fill-palette-color="tertiary"></path></g><g transform="matrix(1,0,0,1,48.000000000000014,144.9375)"><svg viewBox="0 0 223.99999999999997 70.125" height="70.125" width="223.99999999999997"><g><svg viewBox="0 0 223.99999999999997 70.125" height="70.125" width="223.99999999999997"><g><svg viewBox="0 0 223.99999999999997 70.125" height="70.125" width="223.99999999999997"><g><svg viewBox="0 0 223.99999999999997 70.125" height="70.125" width="223.99999999999997"><g id="textblocktransform"><svg viewBox="0 0 223.99999999999997 70.125" height="70.125" width="223.99999999999997" id="textblock"><g><svg viewBox="0 0 223.99999999999997 70.125" height="70.125" width="223.99999999999997"><g transform="matrix(1,0,0,1,0,0)"><svg width="223.99999999999997" viewBox="1.4500000476837158 -55.400001525878906 179.19000244140625 56.10000228881836" height="70.125" data-palette-color="#a437db"><path d="M10.45 0.6Q7.55 0.6 4.75-0.25 1.95-1.1 1.45-2.1L1.45-2.1Q1.7-3.3 1.9-5.38 2.1-7.45 2.1-8.55L2.1-8.55Q2.5-8.9 3.25-8.9L3.25-8.9Q3.25-6.05 3.88-4.45 4.5-2.85 5.95-2.13 7.4-1.4 10.05-1.4L10.05-1.4Q14.75-1.4 17.88-3.38 21-5.35 21-9L21-9Q21-10.9 19.9-12.78 18.8-14.65 16-17.25L16-17.25 14.65-18.5Q12.05-20.85 10.83-22.58 9.6-24.3 9.6-26.75L9.6-26.75Q9.6-29.15 10.83-31.13 12.05-33.1 14.33-34.23 16.6-35.35 19.55-35.35L19.55-35.35Q22.45-35.35 24.5-34.35 26.55-33.35 27.15-32L27.15-32Q27.15-30.5 26.7-28.55 26.25-26.6 26.15-26.25L26.15-26.25Q25.5-26.25 24.9-26.45L24.9-26.45 25.05-27.45Q25.15-28.35 25.15-28.9L25.15-28.9Q25.15-31.2 23.93-32.23 22.7-33.25 20.1-33.25L20.1-33.25Q16.45-33.25 14.28-31.6 12.1-29.95 12.1-27.3L12.1-27.3Q12.1-25.25 13.4-23.58 14.7-21.9 17.4-19.5L17.4-19.5 18.45-18.55Q21.65-15.65 22.83-13.85 24-12.05 24-9.7L24-9.7Q24-6.3 21.93-3.98 19.85-1.65 16.73-0.53 13.6 0.6 10.45 0.6L10.45 0.6ZM59.25-11.55Q59.9-11.55 59.9-10.25L59.9-10.25Q59.9-7.95 57.87-5.4 55.85-2.85 52.97-1.13 50.1 0.6 47.7 0.6L47.7 0.6Q45.75 0.6 44.7-0.6 43.65-1.8 43.45-3.7L43.45-3.7Q42.2-1.9 40.3-0.75 38.4 0.4 36.9 0.4L36.9 0.4Q35.6 0.4 34.32-0.48 33.05-1.35 32.25-2.63 31.45-3.9 31.4-5.05L31.4-5.05 33.85-15.15Q34.15-16.35 35.37-17.73 36.6-19.1 38.35-20 40.1-20.9 41.9-20.9L41.9-20.9Q44.2-20.9 45.95-19.35L45.95-19.35Q46.4-20.55 46.62-20.85 46.85-21.15 47.3-21.2L47.3-21.2 49.75-21.45 49.9-21.35Q48.9-20.55 48.45-18.85L48.45-18.85Q46.9-13.05 46.32-10.3 45.75-7.55 45.75-5.45L45.75-5.45Q45.75-3.35 46.3-2.38 46.85-1.4 48.15-1.4L48.15-1.4Q49.75-1.4 51.97-2.7 54.2-4 56.2-6.33 58.2-8.65 59.25-11.55L59.25-11.55ZM37.1-1.95Q37.95-1.95 39.17-2.55 40.4-3.15 41.47-4.28 42.55-5.4 42.95-6.85L42.95-6.85 43.9-10.95Q44.1-11.95 44.6-14.18 45.1-16.4 45.4-17.6L45.4-17.6Q44-19 42-19L42-19Q40.45-19 39.2-18.18 37.95-17.35 37.15-16.18 36.35-15 36.15-14.1L36.15-14.1 34.15-5.2Q34.25-3.95 35.15-2.95 36.05-1.95 37.1-1.95L37.1-1.95ZM79.65-17.85Q79.84-17.8 80-17.55 80.15-17.3 80.15-17L80.15-17Q80.15-15.95 79.17-14.98 78.2-14 76.62-13.4 75.05-12.8 73.45-12.8L73.45-12.8Q70.95-12.8 69.17-14.1 67.4-15.4 66.9-17.75L66.9-17.75Q64.65-17.5 62.77-14.9 60.9-12.3 60.15-9.25L60.15-9.25Q60.05-8.75 59.4-6.18 58.75-3.6 58.15-0.1L58.15-0.1Q58.1 0.05 58.02 0.13 57.95 0.2 57.7 0.2L57.7 0.2Q57.35 0.2 56.65-0.1 55.95-0.4 55.95-0.75L55.95-0.75Q55.95-1.45 56.2-2.6L56.2-2.6Q59.25-16.7 60.15-20.05L60.15-20.05Q60.25-20.5 60.37-20.65 60.5-20.8 60.8-20.8L60.8-20.8Q61-20.8 61.65-20.48 62.3-20.15 62.7-19.8L62.7-19.8 61.8-16.9 61.5-15.9Q62.65-17.7 64.15-18.8 65.65-19.9 67.34-19.9L67.34-19.9Q67.84-19.9 68.34-19.8 68.84-19.7 69.05-19.55L69.05-19.55Q69.05-17.1 70.32-15.93 71.59-14.75 73.9-14.75L73.9-14.75Q75.95-14.75 77.3-15.45 78.65-16.15 79.65-17.85L79.65-17.85ZM94.84-8.3Q95.09-7.95 95.09-7.45L95.09-7.45Q95.09-7.05 94.94-6.75 94.79-6.45 94.44-6L94.44-6Q93.14-4.45 90.82-2.93 88.49-1.4 85.94-0.45 83.39 0.5 81.49 0.5L81.49 0.5Q79.34 0.5 77.92-0.83 76.49-2.15 76.49-4.8L76.49-4.8Q76.49-8.15 78.89-17.4L78.89-17.4 73.59-17.2Q73.49-17.25 73.32-17.38 73.14-17.5 73.09-17.6L73.09-17.6Q73.24-17.85 73.64-18.6 74.04-19.35 74.34-19.65L74.34-19.65 79.49-19.6Q81.14-25.7 83.29-32.15L83.29-32.15Q84.19-32.85 85.59-33.68 86.99-34.5 87.29-34.5L87.29-34.5Q87.74-34.3 87.84-33.95L87.84-33.95Q86.94-33.6 86.44-33.02 85.94-32.45 85.44-31.15L85.44-31.15Q83.99-27.45 81.94-19.6L81.94-19.6 94.69-19.55 94.74-18.75Q94.74-18.35 94.59-18.2 94.44-18.05 93.89-18L93.89-18Q93.19-17.95 81.39-17.5L81.39-17.5Q79.09-8.1 79.09-4.95L79.09-4.95Q79.09-3.2 79.94-2.38 80.79-1.55 82.54-1.55L82.54-1.55Q87.64-1.55 94.84-8.3L94.84-8.3ZM119.19-54.4Q123.49-54.4 125.99-52.03 128.49-49.65 128.49-45.35L128.49-45.35 128.14-44.75Q127.04-48.15 124.69-49.78 122.34-51.4 119.04-51.4L119.04-51.4Q112.09-51.4 107.24-43.58 102.39-35.75 98.84-21L98.84-21 97.54-15.35 96.89-12.45Q98.94-15.35 102.09-18.07 105.24-20.8 106.84-20.8L106.84-20.8Q107.24-20.8 108.02-20.05 108.79-19.3 108.79-18.95L108.79-18.95Q107.84-16.2 106.54-10.9 105.24-5.6 105.24-4.15L105.24-4.15Q105.24-2.75 105.69-2.13 106.14-1.5 107.54-1.5L107.54-1.5Q110.04-1.5 112.39-3.4 114.74-5.3 116.47-7.73 118.19-10.15 119.09-12L119.09-12Q119.44-11.9 119.64-11.65 119.84-11.4 119.89-10.9L119.89-10.9 119.89-10.75Q119.89-10.15 119.49-9.35L119.49-9.35Q117.19-5.15 113.59-2.27 109.99 0.6 106.59 0.6L106.59 0.6Q104.84 0.6 103.79-0.5 102.74-1.6 102.74-3.6L102.74-3.6Q102.74-5.55 103.37-8.4 103.99-11.25 105.04-15.1L105.04-15.1Q104.99-14.85 105.59-17.15L105.59-17.15Q105.54-17.35 105.34-17.5 105.14-17.65 104.99-17.65L104.99-17.65Q104.49-17.65 102.64-16 100.79-14.35 98.89-12.05 96.99-9.75 96.04-7.75L96.04-7.75Q95.54-5.75 95.04-2.75L95.04-2.75Q94.99-2.4 94.94-2 94.89-1.6 94.79-1.2L94.79-1.2Q94.64-0.3 94.52 0.03 94.39 0.35 94.09 0.35L94.09 0.35Q93.49 0.35 92.74 0.05 91.99-0.25 91.99-0.7L91.99-0.7Q91.99-1.35 92.29-2.6L92.29-2.6 96.64-21.05Q100.29-36.65 105.94-45.53 111.59-54.4 119.19-54.4L119.19-54.4ZM145.09-11.55Q145.74-11.55 145.74-10.25L145.74-10.25Q145.74-7.95 143.71-5.4 141.69-2.85 138.81-1.13 135.94 0.6 133.54 0.6L133.54 0.6Q131.59 0.6 130.54-0.6 129.49-1.8 129.29-3.7L129.29-3.7Q128.04-1.9 126.14-0.75 124.24 0.4 122.74 0.4L122.74 0.4Q121.44 0.4 120.16-0.48 118.89-1.35 118.09-2.63 117.29-3.9 117.24-5.05L117.24-5.05 119.69-15.15Q119.99-16.35 121.21-17.73 122.44-19.1 124.19-20 125.94-20.9 127.74-20.9L127.74-20.9Q130.04-20.9 131.79-19.35L131.79-19.35Q132.24-20.55 132.46-20.85 132.69-21.15 133.14-21.2L133.14-21.2 135.59-21.45 135.74-21.35Q134.74-20.55 134.29-18.85L134.29-18.85Q132.74-13.05 132.16-10.3 131.59-7.55 131.59-5.45L131.59-5.45Q131.59-3.35 132.14-2.38 132.69-1.4 133.99-1.4L133.99-1.4Q135.59-1.4 137.81-2.7 140.04-4 142.04-6.33 144.04-8.65 145.09-11.55L145.09-11.55ZM122.94-1.95Q123.79-1.95 125.01-2.55 126.24-3.15 127.31-4.28 128.39-5.4 128.79-6.85L128.79-6.85 129.74-10.95Q129.94-11.95 130.44-14.18 130.94-16.4 131.24-17.6L131.24-17.6Q129.84-19 127.84-19L127.84-19Q126.29-19 125.04-18.18 123.79-17.35 122.99-16.18 122.19-15 121.99-14.1L121.99-14.1 119.99-5.2Q120.09-3.95 120.99-2.95 121.89-1.95 122.94-1.95L122.94-1.95ZM171.34-55.4Q175.24-55.4 177.94-53.03 180.64-50.65 180.64-45.85L180.64-45.85Q180.64-45.6 180.44-45.4L180.44-45.4Q178.94-48.9 176.46-50.4 173.99-51.9 170.54-51.9L170.54-51.9Q167.14-51.9 163.61-48.85 160.09-45.8 156.74-40.13 153.39-34.45 150.49-26.7L150.49-26.7Q149.04-22.85 147.94-18.28 146.84-13.7 145.19-6L145.19-6 144.74-3.95Q148.34-8.85 153.69-15.1 159.04-21.35 159.84-21.35L159.84-21.35Q161.49-21.35 162.49-20.35L162.49-20.35Q159.04-17.75 154.04-12.15L154.04-12.15Q154.89-8.85 155.71-6.7 156.54-4.55 157.89-3.03 159.24-1.5 161.24-1.5L161.24-1.5Q162.54-1.5 164.61-3.3 166.69-5.1 168.49-8 170.29-10.9 170.89-14.05L170.89-14.05Q171.34-14.05 171.64-13.48 171.94-12.9 171.94-11.95L171.94-11.95Q171.94-10.3 170.09-7.23 168.24-4.15 165.61-1.78 162.99 0.6 160.59 0.6L160.59 0.6Q157.54 0.6 155.71-1.98 153.89-4.55 152.09-9.9L152.09-9.9Q147.59-4.65 144.69-0.3L144.69-0.3Q144.04 0.7 143.79 0.7L143.79 0.7Q143.39 0.7 142.71 0.08 142.04-0.55 141.99-1L141.99-1Q141.94-2 142.99-7.03 144.04-12.05 145.56-17.9 147.09-23.75 148.34-27.3L148.34-27.3Q153.14-40.8 158.81-48.1 164.49-55.4 171.34-55.4L171.34-55.4Z" opacity="1" transform="matrix(1,0,0,1,0,0)" fill="#a437db" class="wordmark-text-0" data-fill-palette-color="primary" id="text-0"></path></svg></g></svg></g></svg></g></svg></g><g></g></svg></g></svg></g></svg></g></svg></g><defs></defs></svg><rect width="320" height="360" fill="none" stroke="none" visibility="hidden"></rect></g></svg></g></svg>