<svg xmlns="http://www.w3.org/2000/svg" version="1.1" xmlns:xlink="http://www.w3.org/1999/xlink" xmlns:svgjs="http://svgjs.dev/svgjs" width="1000" height="126" viewBox="0 0 1000 126"><g transform="matrix(1,0,0,1,-0.6018165569888083,-0.34544021816143555)"><svg viewBox="0 0 396 50" data-background-color="#0b022d" preserveAspectRatio="xMidYMid meet" height="126" width="1000" xmlns="http://www.w3.org/2000/svg" xmlns:xlink="http://www.w3.org/1999/xlink"><g id="tight-bounds" transform="matrix(1,0,0,1,0.23831935656755832,0.137375119909791)"><svg viewBox="0 0 395.52 49.72517249802648" height="49.72517249802648" width="395.52"><g><svg viewBox="0 0 566.6293821022132 71.23721624060151" height="49.72517249802648" width="395.52"><g><rect width="4.648513514750076" height="51.804198496240595" x="407.6888835464662" y="9.716508872180459" fill="#f7fff7" opacity="1" stroke-width="0" stroke="transparent" fill-opacity="1" class="rect-a$-0" data-fill-palette-color="primary" rx="1%" id="a$-0" data-palette-color="#f7fff7"></rect></g><g transform="matrix(1,0,0,1,0,9.845375037593989)"><svg viewBox="0 0 395.52 51.546466165413534" height="51.546466165413534" width="395.52"><g id="textblocktransform"><svg viewBox="0 0 395.52 51.546466165413534" height="51.546466165413534" width="395.52" id="textblock"><g><svg viewBox="0 0 395.52 51.546466165413534" height="51.546466165413534" width="395.52"><g transform="matrix(1,0,0,1,0,0)"><svg width="395.52" viewBox="1.65 -35.7 279.83000000000004 36.400000000000006" height="51.546466165413534" data-palette-color="#f7fff7"><g class="undefined-text-0" data-fill-palette-color="primary" id="text-0"><path d="M11.6 0.7Q9.15 0.7 6.48 0.13 3.8-0.45 2.1-1.25L2.1-1.25 2.75-6.25Q4.75-5 7.2-4.23 9.65-3.45 12.05-3.45L12.05-3.45Q15.15-3.45 16.9-4.73 18.65-6 18.65-8.45L18.65-8.45Q18.65-10.2 17.82-11.45 17-12.7 15.45-13.68 13.9-14.65 11.1-15.9L11.1-15.9Q7.8-17.4 5.88-18.65 3.95-19.9 2.8-21.75 1.65-23.6 1.65-26.35L1.65-26.35Q1.65-29.15 3.1-31.28 4.55-33.4 7.18-34.55 9.8-35.7 13.15-35.7L13.15-35.7Q15.7-35.7 17.98-35.15 20.25-34.6 21.85-33.8L21.85-33.8 21.35-29.1Q17.2-31.55 12.9-31.55L12.9-31.55Q10-31.55 8.35-30.35 6.7-29.15 6.7-26.65L6.7-26.65Q6.7-24.95 7.58-23.83 8.45-22.7 10-21.83 11.55-20.95 14.7-19.5L14.7-19.5Q19.4-17.4 21.55-14.98 23.7-12.55 23.7-8.9L23.7-8.9Q23.7-4.45 20.45-1.88 17.2 0.7 11.6 0.7L11.6 0.7ZM46.7 0L43.9-9.5 33.05-9.5 30.25 0 25.35 0 36.1-35 40.8-35 51.55 0 46.7 0ZM34.3-13.75L42.65-13.75 38.45-27.95 34.3-13.75ZM55.6 0L55.6-35 64.6-35Q70.1-35 73.17-32.27 76.25-29.55 76.25-24.3L76.25-24.3Q76.25-21.3 74.82-18.88 73.4-16.45 70.85-15.05L70.85-15.05 77.85 0 72.45 0 66.2-13.7Q65.4-13.6 64.55-13.6L64.55-13.6 60.15-13.6 60.15 0 55.6 0ZM60.15-17.8L64.2-17.8Q68-17.8 69.75-19.45 71.5-21.1 71.5-24.3L71.5-24.3Q71.5-27.55 69.75-29.2 68-30.85 64.2-30.85L64.2-30.85 60.15-30.85 60.15-17.8ZM88.59 0L88.59-30.85 79.89-30.85 79.89-35 101.89-35 101.89-30.85 93.19-30.85 93.19 0 88.59 0ZM106.09 0L106.09-35 110.64-35 110.64-20.55 126.74-20.55 126.74-35 131.29-35 131.29 0 126.74 0 126.74-16.1 110.64-16.1 110.64 0 106.09 0ZM156.34 0L153.54-9.5 142.69-9.5 139.89 0 134.99 0 145.74-35 150.44-35 161.19 0 156.34 0ZM143.94-13.75L152.29-13.75 148.09-27.95 143.94-13.75ZM165.78 0L165.78-35 170.34-35 170.34 0 165.78 0ZM181.84 0L170.59-18.55 181.84-35 186.89-35 175.53-18.55 186.89 0 181.84 0Z" fill="#f7fff7" data-fill-palette-color="primary"></path><path d="M200.24 0L200.24-35 209.24-35Q214.74-35 217.81-32.27 220.89-29.55 220.89-24.3L220.89-24.3Q220.89-21.3 219.46-18.88 218.04-16.45 215.49-15.05L215.49-15.05 222.49 0 217.09 0 210.84-13.7Q210.04-13.6 209.19-13.6L209.19-13.6 204.79-13.6 204.79 0 200.24 0ZM204.79-17.8L208.84-17.8Q212.64-17.8 214.39-19.45 216.14-21.1 216.14-24.3L216.14-24.3Q216.14-27.55 214.39-29.2 212.64-30.85 208.84-30.85L208.84-30.85 204.79-30.85 204.79-17.8ZM239.99 0.7Q235.69 0.7 232.31-1.55 228.94-3.8 227.04-7.93 225.14-12.05 225.14-17.5L225.14-17.5Q225.14-22.95 227.04-27.08 228.94-31.2 232.31-33.45 235.69-35.7 239.99-35.7L239.99-35.7Q244.29-35.7 247.64-33.45 250.98-31.2 252.89-27.08 254.79-22.95 254.79-17.5L254.79-17.5Q254.79-12.05 252.89-7.93 250.98-3.8 247.64-1.55 244.29 0.7 239.99 0.7L239.99 0.7ZM239.99-3.85Q244.79-3.85 247.36-7.68 249.94-11.5 249.94-17.5L249.94-17.5Q249.94-23.5 247.36-27.33 244.79-31.15 239.99-31.15L239.99-31.15Q235.19-31.15 232.59-27.33 229.99-23.5 229.99-17.5L229.99-17.5Q229.99-11.5 232.59-7.68 235.19-3.85 239.99-3.85L239.99-3.85ZM276.43-35L281.48-35 271.18-15.15 271.18 0 266.63 0 266.63-15.15 256.23-35 261.28-35 268.88-19.95 276.43-35Z" fill="#d14fe2" data-fill-palette-color="accent"></path></g></svg></g></svg></g></svg></g></svg></g><g transform="matrix(1,0,0,1,424.5062806076824,0)"><svg viewBox="0 0 142.1231014945308 71.23721624060151" height="71.23721624060151" width="142.1231014945308"><g><svg xmlns="http://www.w3.org/2000/svg" xmlns:xlink="http://www.w3.org/1999/xlink" xml:space="preserve" style="shape-rendering:geometricPrecision;text-rendering:geometricPrecision;image-rendering:optimizeQuality;" viewBox="0.0000020000000000575113 0.0000027841116459863258 14.727499 7.381952827609914" x="0" y="0" fill-rule="evenodd" clip-rule="evenodd" width="142.1231014945308" height="71.23721624060151" class="icon-icon-0" data-fill-palette-color="accent" id="icon-0"><g fill="#d14fe2" data-fill-palette-color="accent"><path class="" d="M1.757 3.091c-0.313 0.444-0.296 1.331-0.417 1.95-0.153 0.784-0.711 1.203-1.34 1.534 0.188-0.771 0.348-1.542 0.412-2.313 0.078-0.953-0.06-0.891 0.767-1.575 1.159-0.961 3.04-1.741 5.848-2.29 2.456-0.406 5.049-0.453 7.701-0.351-0.89 1.809-3.733 1.961-7.203 1.581-1.811 0.02-3.495-0.488-5.768 1.464z m8.33 2.781c-3.895 2.038-7.803-2.284-9.165 0.688 2.104-1.831 5.079 3.183 9.165-0.688z m2.489-2.547c-4.49 2.72-9.502-0.792-10.907 1.859 3.412-1.235 7.765 2.753 10.907-1.859z m0.834-1.478c-3.944 1.761-10.043-1.402-11.565 2.239 3.106-1.808 8.446 1.438 11.565-2.239z" fill="#d14fe2" data-fill-palette-color="accent"></path></g></svg></g></svg></g></svg></g><defs></defs></svg><rect width="395.52" height="49.72517249802648" fill="none" stroke="none" visibility="hidden"></rect></g></svg></g></svg>