<svg xmlns="http://www.w3.org/2000/svg" version="1.1" xmlns:xlink="http://www.w3.org/1999/xlink" xmlns:svgjs="http://svgjs.dev/svgjs" width="1000" height="373" viewBox="0 0 1000 373"><g transform="matrix(1,0,0,1,-0.6056348047761162,0.15308006684406905)"><svg viewBox="0 0 396 148" data-background-color="#60777f" preserveAspectRatio="xMidYMid meet" height="373" width="1000" xmlns="http://www.w3.org/2000/svg" xmlns:xlink="http://www.w3.org/1999/xlink"><g id="tight-bounds" transform="matrix(1,0,0,1,0.24008861730862918,-0.06073954394885561)"><svg viewBox="0 0 395.52 148.12144404639665" height="148.12144404639665" width="395.52"><g><svg viewBox="0 0 395.52 148.12144404639665" height="148.12144404639665" width="395.52"><g><svg viewBox="0 0 395.52 148.12144404639665" height="148.12144404639665" width="395.52"><g id="textblocktransform"><svg viewBox="0 0 395.52 148.12144404639665" height="148.12144404639665" width="395.52" id="textblock"><g><svg viewBox="0 0 395.52 148.12144404639665" height="148.12144404639665" width="395.52"><path d="M394.594 31.769C392.735 16.394 387.435 12.12 387.435 12.12 371.165-3.716 350.86-0.303 332.619 1.973 300.414 2.065 268.339 5.447 236.208 7.262 168.767 7.538 100.749 2.987 33.643 14.211 27.339 17.655-6.54 14.888 1.121 33.737 3.129 41.578 10.456 50.281 10.232 57.476 11.236 58.737 12.631 55.846 13.226 57.661 15.309 62.55 18.711 60.244 21.501 63.134 17.614 70.852 20.403 77.279 23.062 84.013 18.377 85.766 12.371 84.936 9.675 90.748 9.396 94.96 7.89 94.161 6.235 93.976 5.026 93.853 2.59 94.315 2.999 95.637 4.394 100.157-1.594 102.771 2.162 107.199-0.422 111.996 3.948 116.147 3.353 121.344 3.278 122.389 3.687 123.281 4.338 123.527 7.22 124.849 3.018 127.432 3.464 130.23 33.029 149.357 65.104 136.134 95.394 144.929 103.259 138.779 97.346 147.112 100.489 145.821 102.943 144.314 104.728 150.556 107.499 147.02 107.927 146.005 107.276 143.607 108.8 144.068 109.6 144.314 110.307 144.252 110.418 142.838 110.586 140.716 109.117 142.038 108.726 140.931 112.947 135.335 111.906 148.65 115.866 148.096 115.68 146.466 114.528 144.129 116.889 144.437 119.232 142.1 119.306 140.163 121.389 145.421 121.463 146.559 121.835 147.358 122.43 147.912 128.938 142.192 135.409 149.941 142.233 147.358 146.417 144.529 150.433 148.896 154.672 147.819 156.16 146.958 157.666 145.421 159.098 148.004 176.632 148.557 195.319 146.251 211.943 148.096 256.364 144.652 303.836 149.511 350.674 144.96 361.719 143.207 373.192 140.716 383.958 138.717 383.958 138.717 392.679 133.244 392.679 108.644S394.538 87.119 394.817 67.531C395.096 47.944 396.398 47.144 394.538 31.769Z" opacity="1" fill="#ffffff" data-fill-palette-color="tertiary"></path><g transform="matrix(1,0,0,1,55.76832,26.230666666666668)"><svg width="283.98335999999995" viewBox="-7.5 -38.35 175.28 59.05" height="95.6601107130633" data-palette-color="#60777f"><path d="M23.3-23.5L23.3-23.5Q21.35-23.5 21.35-25.2L21.35-25.2Q21.35-27.8 24.25-30.1 27.15-32.4 31.15-33.85L31.15-33.85Q30.8-35.3 29.35-36.08 27.9-36.85 25.78-36.85 23.65-36.85 21.38-36.05 19.1-35.25 17.07-33.77 15.05-32.3 13.78-29.88 12.5-27.45 12.5-24.55L12.5-24.55Q12.5-23.55 14-18.7 15.5-13.85 15.5-10.65L15.5-10.65Q15.5-9.85 15.3-8.35L15.3-8.35Q17.2-8.55 18.05-8.55L18.05-8.55Q22.9-8.55 22.9-6L22.9-6Q22.9-5.1 22.35-4.5 21.8-3.9 20.5-3.1L20.5-3.1Q20.1-3.35 20.1-3.55 20.1-3.75 20.3-3.9L20.3-3.9Q21.8-4.75 21.8-5.6L21.8-5.6Q21.8-7.3 17.85-7.3L17.85-7.3Q16.4-7.3 15.05-7.1L15.05-7.1Q14.2-3.9 11.88-1.13 9.55 1.65 6.7 3.38 3.85 5.1 0.98 6.05-1.9 7-4.1 7L-4.1 7Q-7.5 7-7.5 5L-7.5 5Q-7.5 2.2-4-0.65-0.5-3.5 4.33-5.43 9.15-7.35 13.8-8.15L13.8-8.15Q14-9.55 14-10.4L14-10.4Q14-12.55 12.43-17.13 10.85-21.7 10.85-25 10.85-28.3 13.45-31.58 16.05-34.85 19.63-36.6 23.2-38.35 26.4-38.35L26.4-38.35Q31.45-38.35 31.95-34.1L31.95-34.1Q34.75-35 35.75-35 36.75-35 36.83-34.93 36.9-34.85 36.9-34.35 36.9-33.85 36.45-33.7L36.45-33.7Q34.2-33.6 32-33.05L32-33.05Q31.9-29 28.95-26.25 26-23.5 23.3-23.5ZM-5.55 3.75L-5.55 3.75Q-5.55 5.2-2.65 5.2L-2.65 5.2Q1.4 5.2 6.4 2.3L6.4 2.3Q8.85 0.9 10.83-1.53 12.8-3.95 13.55-6.9L13.55-6.9Q9.3-6.2 5.03-4.65 0.75-3.1-2.4-0.83-5.55 1.45-5.55 3.75ZM22.95-25.5L22.95-25.5Q22.95-24.55 23.95-24.55L23.95-24.55Q25.85-24.55 28.53-27.13 31.2-29.7 31.25-32.8L31.25-32.8Q27.75-31.7 25.35-29.75 22.95-27.8 22.95-25.5ZM32.2-5.95L32.2-5.95Q31.9-5.95 31.9-6.3L31.9-6.3 32.05-6.65Q32.95-7.5 32.95-8.1L32.95-8.1Q32.95-8.85 32.15-8.85L32.15-8.85Q30.4-8.85 27.42-6.43 24.45-4 24.45-2.1L24.45-2.1Q24.45-1.3 25.5-1.3 26.55-1.3 27.92-2.18 29.3-3.05 30.27-3.93 31.25-4.8 31.35-4.8L31.35-4.8Q31.85-4.75 31.85-4.3L31.85-4.3Q31.85-4.1 31.07-3 30.3-1.9 30.3-1.25L30.3-1.25Q30.3-0.75 31.12-0.75 31.95-0.75 34.05-1.73 36.15-2.7 37.75-3.7L37.75-3.7 39.35-4.7Q39.4-4.6 39.4-4.3 39.4-4 38.95-3.8L38.95-3.8Q32.2 0.8 29.55 0.8L29.55 0.8Q28.25 0.8 28.25-0.5L28.25-0.5Q28.25-1.05 28.45-1.65L28.45-1.65Q28.1-1.25 26.37-0.43 24.65 0.4 23.3 0.4 21.95 0.4 21.95-0.85L21.95-0.85Q21.95-3.8 26.05-6.88 30.15-9.95 32.95-9.95L32.95-9.95Q34.6-9.95 34.6-8.55L34.6-8.55Q34.6-7.75 33.6-6.85 32.6-5.95 32.2-5.95ZM38.25-3.35L38.25-3.35Q38.05-3.25 37.87-3.25 37.7-3.25 37.7-3.45 37.7-3.65 37.85-3.8L37.85-3.8Q39.9-4.95 42.35-7.55L42.35-7.55Q40.1-8.25 40.1-9.53 40.1-10.8 41.8-12.38 43.5-13.95 45-13.95L45-13.95Q46-13.95 46-12.75L46-12.75Q46-10.9 44.15-8.8L44.15-8.8Q46.55-8.4 46.55-7.65L46.55-7.65Q46.55-6.65 45.67-6.13 44.8-5.6 43.65-4.25 42.5-2.9 42.5-1.55L42.5-1.55Q42.5-1.25 42.7-1 42.9-0.75 43.55-0.75 44.2-0.75 46.3-1.73 48.4-2.7 50-3.7L50-3.7 51.6-4.7Q51.65-4.6 51.65-4.3 51.65-4 51.2-3.8L51.2-3.8Q44.45 0.8 41.8 0.8L41.8 0.8Q40.5 0.8 40.5-0.5L40.5-0.5Q40.5-1.55 41.22-2.7 41.95-3.85 42.82-4.6 43.7-5.35 44.42-6.03 45.15-6.7 45.15-6.9 45.15-7.1 44.52-7.15 43.9-7.2 42.9-7.4L42.9-7.4Q40.15-4.45 38.25-3.35ZM41.35-10.3L41.35-10.3Q41.35-9.3 43.55-8.9L43.55-8.9Q44.85-10.5 44.85-11.68 44.85-12.85 44.1-12.85 43.35-12.85 42.35-11.98 41.35-11.1 41.35-10.3ZM51.24-16.5L51.24-16.5Q54.64-16.5 57.94-16.55L57.94-16.55Q63.29-23.4 65.24-23.4L65.24-23.4Q65.94-23.4 65.94-22.65L65.94-22.65Q65.94-20.25 62.44-16.65L62.44-16.65 66.24-16.7Q70.04-16.85 70.89-16.85 71.74-16.85 71.74-16.65L71.74-16.65Q71.74-15.7 70.44-15.65L70.44-15.65 61.04-15.25Q58.59-12.95 54.99-10.4L54.99-10.4Q51.19-4.15 51.19-1.9L51.19-1.9Q51.19-0.75 52.67-0.75 54.14-0.75 57.34-2.35L57.34-2.35 61.39-4.7Q61.44-4.6 61.44-4.3 61.44-4 60.99-3.8L60.99-3.8Q59.39-2.7 57.49-1.6L57.49-1.6Q53.44 0.45 51.29 0.45L51.29 0.45Q50.29 0.45 49.74 0.05 49.19-0.35 49.14-0.75L49.14-0.75 49.04-1.15Q49.04-2.85 51.34-6.88 53.64-10.9 56.79-15.1L56.79-15.1Q54.39-15 52.24-15 50.09-15 50.09-15.5L50.09-15.5Q50.09-16.45 51.24-16.5ZM64.39-21.6L64.39-21.6Q64.39-21.85 64.19-21.85L64.19-21.85Q63.04-21.85 59.09-16.6L59.09-16.6 61.59-16.6Q64.39-19.65 64.39-21.6ZM60.19-15.2L60.19-15.2Q58.59-15.2 58.04-15.15L58.04-15.15Q57.59-14.5 56.79-13.25 55.99-12 55.69-11.55L55.69-11.55Q58.29-13.45 60.19-15.2ZM60.89-0.65L60.89-0.65Q61.34-0.65 65.92-4.63 70.49-8.6 71.29-8.6 72.09-8.6 72.09-7.9L72.09-7.9Q72.09-7.35 71.09-6.2 70.09-5.05 69.12-3.7 68.14-2.35 68.14-1.3L68.14-1.3Q68.14-0.75 68.97-0.75 69.79-0.75 71.89-1.73 73.99-2.7 75.59-3.7L75.59-3.7 77.19-4.7Q77.24-4.6 77.24-4.3 77.24-4 76.79-3.8L76.79-3.8Q70.04 0.8 67.39 0.8L67.39 0.8Q66.09 0.8 66.09-0.6L66.09-0.6Q66.09-1.55 66.79-2.9 67.49-4.25 68.19-5.15L68.19-5.15 68.84-6.05Q66.59-4.35 64.19-2.23 61.79-0.1 60.54 0.98 59.29 2.05 58.79 2.05 58.29 2.05 58.29 1.33 58.29 0.6 60.64-3.7 62.99-8 66.07-12.98 69.14-17.95 72.52-22 75.89-26.05 77.64-26.05L77.64-26.05Q78.39-26.05 78.69-25.35L78.69-25.35Q78.84-25.1 78.84-24.75L78.84-24.75Q78.84-21.3 68.49-11.5L68.49-11.5Q66.54-9.6 64.69-8L64.69-8Q60.89-1.6 60.89-0.65ZM77.19-24.2L77.19-24.2Q77.19-24.7 76.94-24.7L76.94-24.7Q75.94-24.7 72.74-20.3 69.54-15.9 65.94-10.05L65.94-10.05Q77.19-20.3 77.19-24.2ZM85.24-5.95L85.24-5.95Q84.94-5.95 84.94-6.3L84.94-6.3 85.09-6.65Q85.99-7.5 85.99-8.1L85.99-8.1Q85.99-8.85 85.19-8.85L85.19-8.85Q83.44-8.85 80.46-6.43 77.49-4 77.49-2.1L77.49-2.1Q77.49-1.3 78.54-1.3 79.59-1.3 80.96-2.18 82.34-3.05 83.31-3.93 84.29-4.8 84.39-4.8L84.39-4.8Q84.89-4.75 84.89-4.3L84.89-4.3Q84.89-4.1 84.11-3 83.34-1.9 83.34-1.25L83.34-1.25Q83.34-0.75 84.16-0.75 84.99-0.75 87.09-1.73 89.19-2.7 90.79-3.7L90.79-3.7 92.39-4.7Q92.44-4.6 92.44-4.3 92.44-4 91.99-3.8L91.99-3.8Q85.24 0.8 82.59 0.8L82.59 0.8Q81.29 0.8 81.29-0.5L81.29-0.5Q81.29-1.05 81.49-1.65L81.49-1.65Q81.14-1.25 79.41-0.43 77.69 0.4 76.34 0.4 74.99 0.4 74.99-0.85L74.99-0.85Q74.99-3.8 79.09-6.88 83.19-9.95 85.99-9.95L85.99-9.95Q87.64-9.95 87.64-8.55L87.64-8.55Q87.64-7.75 86.64-6.85 85.64-5.95 85.24-5.95ZM102.84-2.3L102.84-2.3 106.94-4.7Q106.99-4.6 106.99-4.3 106.99-4 106.54-3.8L106.54-3.8Q99.74 0.75 96.84 0.75L96.84 0.75Q94.34 0.75 94.34-2.55L94.34-2.55Q94.34-3.9 94.79-5.03 95.24-6.15 96.24-6.15L96.24-6.15Q99.69-6.15 101.61-7.2 103.54-8.25 103.54-9.38 103.54-10.5 101.94-10.5L101.94-10.5Q98.34-10.5 92.79-4L92.79-4Q91.09-0.8 90.24 0.9L90.24 0.9Q89.99 1.35 89.54 1.35L89.54 1.35Q88.54 1.35 88.54 0.65L88.54 0.65Q88.54 0.35 88.74-0.05L88.74-0.05 93.19-7.85Q97.44-15.35 101.89-21.35 106.34-27.35 108.59-27.35L108.59-27.35Q109.34-27.35 109.64-26.65L109.64-26.65Q109.79-26.4 109.79-26.05L109.79-26.05Q109.79-24.25 106.69-20.4 103.59-16.55 100.89-13.9 98.19-11.25 95.39-8.75L95.39-8.75 93.99-6.25Q99.39-11.75 103.39-11.75L103.39-11.75Q105.69-11.75 105.69-10.25L105.69-10.25Q105.69-8.6 103.11-6.95 100.54-5.3 96.69-5.3L96.69-5.3Q96.14-4.5 96.14-3.5L96.14-3.5Q96.14-0.7 98.34-0.7L98.34-0.7Q99.94-0.7 102.69-2.2L102.69-2.2Q102.79-2.3 102.84-2.3ZM108.14-25.5L108.14-25.5Q108.14-26 107.89-26L107.89-26Q105.14-26 96.44-10.7L96.44-10.7Q100.84-14.75 104.49-18.98 108.14-23.2 108.14-25.5ZM137.98-31.35L138.23-31.15Q138.23-31.05 138.16-30.93 138.08-30.8 136.68-28.1L136.68-28.1Q135.13-25.2 128.53-12.95L128.53-12.95Q135.93-15.7 141.78-21.18 147.63-26.65 147.63-30.8L147.63-30.8Q147.63-33.05 145.43-34.5 143.23-35.95 138.78-35.95 134.33-35.95 129.21-34.08 124.08-32.2 120.18-29.6 116.28-27 113.66-24.25 111.03-21.5 111.03-19.75L111.03-19.75Q111.03-17.8 114.16-17.8 117.28-17.8 121.31-19.88 125.33-21.95 128.53-25.4L128.53-25.4Q129.08-26.05 129.23-26.05L129.23-26.05Q129.58-26.05 129.58-25.7L129.58-25.7Q129.58-25.6 129.23-25L129.23-25Q127.58-22.5 121.91-19.13 116.23-15.75 112.51-15.75 108.78-15.75 108.78-18.1L108.78-18.1Q108.78-20.2 111.76-23.53 114.73-26.85 119.18-30 123.63-33.15 129.53-35.4 135.43-37.65 140.41-37.65 145.38-37.65 147.73-36.08 150.08-34.5 150.08-32L150.08-32Q150.08-27.65 144.56-22.1 139.03-16.55 131.23-13.2L131.23-13.2Q136.28-13.15 139.63-8.83 142.98-4.5 143.03 1.2L143.03 1.2Q143.03 1.9 142.78 1.9L142.78 1.9Q142.38 1.9 142.23 1.03 142.08 0.15 141.88-0.7 141.68-1.55 140.66-3.7 139.63-5.85 138.26-7.5 136.88-9.15 134.28-10.5 131.68-11.85 128.43-11.85L128.43-11.85 127.88-11.85Q124.28-5.3 121.83-1L121.83-1Q121.53-0.35 120.73 0 119.93 0.35 119.51 0.35 119.08 0.35 119.08 0.1L119.08 0.1 125.23-11.1Q123.23-10.6 121.13-10.35L121.13-10.35Q120.23-10.35 120.23-10.65L120.23-10.65Q120.23-11.2 120.78-11.25L120.78-11.25Q123.08-11.4 125.78-12.1L125.78-12.1 135.83-30.4Q135.98-30.8 136.73-31.08 137.48-31.35 137.98-31.35L137.98-31.35ZM155.68-3.5L155.68-3.5Q154.13-2.55 152.08-2.55L152.08-2.55 151.48-2.55Q150.13-1 148.6-0.03 147.08 0.95 145.98 0.95L145.98 0.95Q144.43 0.95 144.43-1.05 144.43-3.05 146.58-5.7L146.58-5.7Q146.38-6.25 146.38-7.05L146.38-7.05Q146.38-8.8 147.9-10.08 149.43-11.35 150.88-11.35L150.88-11.35Q153.93-11.35 153.93-8.05L153.93-8.05Q153.93-5.85 152.03-3.25L152.03-3.25 152.63-3.25Q154.23-3.25 155.38-4L155.38-4Q155.53-4.15 155.78-4.15 156.03-4.15 156.03-3.98 156.03-3.8 155.68-3.5ZM150.88-9.25L150.88-9.25Q151.13-9.35 151.28-9.35 151.43-9.35 151.43-9.13 151.43-8.9 150.88-8.5L150.88-8.5Q148.88-6.95 147.88-5.7L147.88-5.7Q148.98-3.95 151.23-3.4L151.23-3.4Q153.18-5.7 153.18-7.7L153.18-7.7Q153.18-8.85 152.43-9.45 151.68-10.05 150.5-10.05 149.33-10.05 148.33-9.38 147.33-8.7 147.33-7.93 147.33-7.15 147.48-6.7L147.48-6.7Q149.03-8.3 150.88-9.25ZM147.18-4.6L147.18-4.6Q146.38-3.25 146.38-1.6L146.38-1.6Q146.38-0.7 147.18-0.7L147.18-0.7Q148.53-0.7 150.53-2.7L150.53-2.7Q148.28-3.1 147.18-4.6ZM167.78-9.35Q167.78-9.3 166.65-7.58 165.53-5.85 164.9-4.95 164.28-4.05 159.68 3.45L159.68 3.45Q160.08 3.4 160.97 3.4L160.97 3.4Q163.38 3.4 163.38 4.65L163.38 4.65Q163.38 5.35 162.47 6.3 161.58 7.25 161.08 7.25 160.58 7.25 160.58 6.9L160.58 6.9Q160.58 6.7 161.13 6.28 161.68 5.85 161.68 5.28 161.68 4.7 160.7 4.7 159.72 4.7 158.83 4.85L158.83 4.85Q154.28 12.3 150.97 16.5 147.68 20.7 145.33 20.7L145.33 20.7Q143.63 20.7 143.63 18.95L143.63 18.95Q143.63 15.95 148.15 10.63 152.68 5.3 157.97 3.8L157.97 3.8 162.78-4.5Q160.68-2.6 158.45-1.15 156.22 0.3 155.08 0.3 153.93 0.3 153.93-0.75L153.93-0.75Q153.93-2.35 159.18-9.6L159.18-9.6Q159.43-10 159.83-10L159.83-10Q160.97-9.65 160.97-9.5 160.97-9.35 160.68-8.9L160.68-8.9Q156.18-2.8 156.18-1.85L156.18-1.85Q156.18-1.25 156.85-1.25 157.53-1.25 159.65-2.85 161.78-4.45 163.28-6.1L163.28-6.1 166.08-9.5Q166.38-9.85 166.83-9.85L166.83-9.85Q167.78-9.7 167.78-9.35L167.78-9.35ZM148.47 11.68Q147.03 13.65 146.18 15.43 145.33 17.2 145.33 18.23 145.33 19.25 146.13 19.25L146.13 19.25Q148.63 19.25 157.08 5.25L157.08 5.25Q154.58 6.05 152.25 7.88 149.93 9.7 148.47 11.68Z" opacity="1" transform="matrix(1,0,0,1,0,0)" fill="#60777f" class="undefined-text-0" data-fill-palette-color="quaternary" id="text-0"></path></svg></g></svg></g></svg></g></svg></g><g></g></svg></g><defs></defs></svg><rect width="395.52" height="148.12144404639665" fill="none" stroke="none" visibility="hidden"></rect></g></svg></g></svg>